<svg xmlns="http://www.w3.org/2000/svg" viewBox="0 0 468.02 198.7"><title>auto</title><path d="M43.3-131.15c-7.14-.39-10.75-5.16-13.82-10.71C23.49-152.7,15.67-162,4.77-168-26.76-185.46-64.62-164.9-66-129.56c-0.44,11-6,16.7-17,16.65-64.14-.33-128.28-0.16-192.42-0.1a87.61,87.61,0,0,0-10.88.94c-6.92.88-8.35,0-10.42-6.72-3.87-12.52-9.55-24-18-34.21-13.77-16.61-41.47-17.79-55.59-10.44-12,6.23-17.22,17.64-20.57,29.95-2.4,8.8-14.11,14.82-22.16,10.66-1.63-.84-3.49-3.17-3.51-4.83,0-3.75-1-6.25-4.06-8.73-4-3.28-4.52-9.64-2.14-14.28s7.54-7.79,12.36-6.52c4.16,1.1,5.15-1,6.6-3.87,16.21-31.56,36.54-59.92,64.17-82.64C-309.46-268.56-275-282.17-235.74-283c25.46-.52,50.91-0.38,76.08,4.29,4.23,0.79,8.68,1.48,12.47,3.34a29.79,29.79,0,0,1,10.36,8c7.62,9.88,14.74,20.15,21.74,30.49,2.07,3.07,4.38,4,7.85,3.94,25.9-.1,51.62,2.14,76.5,9.53,11,3.28,21.67,8.36,32,13.66,8.25,4.25,14.32,11.26,18.38,19.84a6.6,6.6,0,0,0,3.63,3.42c9,2.16,14.32,8,15.77,16.75,2,12.28,3.25,24.69,4.78,37.05A4.73,4.73,0,0,1,43.3-131.15Zm-224-92.4q0-.63,0-1.25c4,0,8,.08,12,0,10.82-.27,21.64-0.55,32.45-0.93,8.71-.31,11.72-4.83,7.18-12.29a120.74,120.74,0,0,0-16.07-21.38c-6.88-7.08-15.8-10.47-26.16-10.19-15,.41-30.12,0-45.17.05a52,52,0,0,0-6.46.31c-8,1-11.38,4.89-11.41,12.88,0,6.83,0,13.66,0,20.49,0,10.28,2.21,12.38,12.72,12.34C-208-223.58-194.31-223.55-180.67-223.55Zm-104.46,1.75v-0.6c10.47,0,20.94.08,31.41,0,4.77-.05,7.75-3,7.86-7.77,0.21-9.31.21-18.63,0.32-27.94,0-3.32-1.43-5.61-4.74-5.95-24.29-2.46-46.83,2-65.43,18.76-3.58,3.23-5.66,8.94-6.77,13.88-1.43,6.37,2,9.64,8.42,9.65Q-299.59-221.78-285.13-221.8Z" transform="translate(424.24 283.18)"/><path d="M-57.75-128.13c0.15-22.34,18.73-40.67,41-40.41,22.41,0.26,40.71,18.91,40.32,41.09S4.66-87-17.21-87.23C-39.59-87.42-57.9-105.9-57.75-128.13Zm41.61,13.6A14.76,14.76,0,0,0-.94-129a15,15,0,0,0-14.81-15,15,15,0,0,0-15,14.9A14.72,14.72,0,0,0-16.14-114.53Z" transform="translate(424.24 283.18)"/><path d="M-347.88-161.74c21.93,0.1,38.79,17.15,38.69,39.13-0.09,21-17.57,38.16-38.82,38.14s-38.66-17.71-38.52-39A38.51,38.51,0,0,1-347.88-161.74Zm1.45,52.07a14.72,14.72,0,0,0,14.65-14.53,14.54,14.54,0,0,0-14.61-15,14.54,14.54,0,0,0-14.91,14.71A14.7,14.7,0,0,0-346.42-109.66Z" transform="translate(424.24 283.18)"/></svg>