<svg xmlns="http://www.w3.org/2000/svg" viewBox="0 0 800.41 415.1"><title>kleerhanger</title><path d="M-1837.6-852.65c-118,0-236-.18-353.94.22-16.32.06-27.42-7.42-37-19-14.38-17.45-13.93-50,11.59-63.42q29.16-15.33,59.18-29,149.77-68.4,299.76-136.3c3.28-1.49,4.36-3.36,4.31-6.8-0.09-6,.35-12,0.44-18a40.84,40.84,0,0,1,13.35-30.19c7.38-7,14.43-14.33,21.9-21.21,11.74-10.82,13.25-24.11,9.53-38.55-2.77-10.74-14.57-19.41-26.64-20.23-13.85-.94-26.45,6.24-31.47,18.47-1.88,4.57-2.67,9.59-4,14.41-2.57,9.65-9.12,14.79-17.4,13.64-8.45-1.17-13.79-8.22-13.68-18.06,0.3-27.63,22-53.42,50-59.38a63.66,63.66,0,0,1,71.58,35.7c11,23.86,6.27,55.6-12.17,73.37-9.12,8.79-18.13,17.69-26.91,26.81a12,12,0,0,0-3,7.32c-0.23,6.78-2,15,1.14,20,3,4.76,11.29,6.25,17.34,9q163.23,74.4,326.47,148.8a165.64,165.64,0,0,1,16.82,8.78c32.49,19.6,27,56.27,3.33,74.8a40.45,40.45,0,0,1-26.15,9.08Q-1660.38-852.92-1837.6-852.65Zm-0.25-31v0.1q148.73,0,297.47,0c18.16,0,36.33-.26,54.49-0.48,7.56-.09,13.58-4.74,15.14-11.42,1.68-7.21-.21-10.46-8.59-14.71-1.49-.75-3-1.49-4.49-2.19-45.51-21-90.92-42.3-136.55-63.07-69.74-31.75-139.67-63.06-209.37-94.89-6.18-2.82-10.9-1.8-16.39.69q-167,75.71-334.13,151.32a176.22,176.22,0,0,0-18.69,9.5c-8.46,5.13-8.9,15.3-.89,21.17a19.26,19.26,0,0,0,10.06,3.48c13,0.51,26,.51,39,0.51Q-1994.33-883.63-1837.85-883.66Z" transform="translate(2238.01 1267.54)"/></svg>